<svg xmlns="http://www.w3.org/2000/svg" viewBox="0 0 100 125" fill="white" x="0px" y="0px"><path fill-rule="evenodd" clip-rule="evenodd" d="M59.901 34.2421C59.0069 35.1362 57.5117 34.986 56.9482 33.8541C53.2226 26.3698 54.4787 17.037 60.7164 10.7993C68.5269 2.98877 81.1902 2.98877 89.0007 10.7993C96.8112 18.6097 96.8112 31.273 89.0007 39.0835C82.763 45.3212 73.4301 46.5773 65.9459 42.8518C64.8139 42.2883 64.6638 40.793 65.5579 39.8989L65.6334 39.8234C66.2787 39.1781 67.2741 39.0641 68.1014 39.4493C74.0233 42.2069 81.2852 41.1422 86.1723 36.2551C92.4206 30.0067 92.4206 19.8761 86.1723 13.6277C79.9239 7.37929 69.7932 7.37929 63.5448 13.6277C58.6578 18.5147 57.5931 25.7767 60.3506 31.6985C60.7358 32.5258 60.6218 33.5213 59.9765 34.1665L59.901 34.2421ZM34.4422 39.8989C35.3363 40.793 35.1861 42.2883 34.0542 42.8518C26.5699 46.5773 17.237 45.3212 10.9993 39.0835C3.18886 31.2731 3.18886 18.6098 10.9993 10.7993C18.8098 2.98879 31.4731 2.98879 39.2836 10.7993C45.5213 17.037 46.7774 26.3698 43.0518 33.8541C42.4884 34.986 40.9931 35.1362 40.099 34.2421L40.0235 34.1666C39.3782 33.5213 39.2642 32.5258 39.6494 31.6986C42.407 25.7767 41.3422 18.5147 36.4552 13.6277C30.2068 7.37931 20.0762 7.37931 13.8278 13.6277C7.57938 19.8761 7.57938 30.0067 13.8278 36.2551C18.7148 41.1422 25.9768 42.2069 31.8986 39.4493C32.7259 39.0641 33.7214 39.1781 34.3666 39.8234L34.4422 39.8989ZM39.2836 88.8006C45.5213 82.563 46.7774 73.2301 43.0519 65.7458C42.4884 64.6139 40.9931 64.4637 40.0991 65.3578L40.0235 65.4333C39.3782 66.0786 39.2642 67.0741 39.6494 67.9014C42.407 73.8232 41.3423 81.0852 36.4552 85.9722C30.2068 92.2206 20.0762 92.2206 13.8278 85.9722C7.57942 79.7238 7.57942 69.5932 13.8278 63.3448C18.7149 58.4578 25.9768 57.393 31.8987 60.1506C32.7259 60.5358 33.7214 60.4218 34.3667 59.7765L34.4422 59.701C35.3363 58.8069 35.1861 57.3116 34.0542 56.7481C26.5699 53.0226 17.2371 54.2787 10.9994 60.5164C3.18889 68.3269 3.18889 80.9902 10.9994 88.8006C18.8099 96.6111 31.4732 96.6111 39.2836 88.8006ZM65.5579 59.701C64.6638 58.8069 64.814 57.3116 65.9459 56.7481C73.4301 53.0226 82.763 54.2787 89.0007 60.5164C96.8112 68.3269 96.8112 80.9902 89.0007 88.8006C81.1902 96.6111 68.5269 96.6111 60.7164 88.8006C54.4788 82.5629 53.2227 73.2301 56.9482 65.7458C57.5117 64.6139 59.007 64.4637 59.901 65.3578L59.9766 65.4333C60.6218 66.0786 60.7359 67.0741 60.3507 67.9014C57.5931 73.8232 58.6578 81.0852 63.5449 85.9722C69.7933 92.2206 79.9239 92.2206 86.1723 85.9722C92.4207 79.7238 92.4207 69.5932 86.1723 63.3448C81.2852 58.4577 74.0233 57.393 68.1014 60.1506C67.2742 60.5358 66.2787 60.4218 65.6334 59.7765L65.5579 59.701ZM24.5443 25.9584C24.1537 25.5678 24.1537 24.9347 24.5443 24.5442C24.9348 24.1536 25.568 24.1536 25.9585 24.5442L43.8463 42.432C44.5594 43.1451 45.6833 43.1881 46.5956 42.7584C47.6286 42.272 48.7826 42 50 42C51.2175 42 52.3715 42.272 53.4046 42.7585C54.3169 43.1882 55.4408 43.1451 56.1538 42.4321L74.0417 24.5442C74.4323 24.1536 75.0654 24.1536 75.4559 24.5442C75.8465 24.9347 75.8465 25.5678 75.4559 25.9584L57.568 43.8463C56.8549 44.5594 56.8119 45.6832 57.2416 46.5956C57.7281 47.6286 58 48.7825 58 50C58 51.2175 57.7281 52.3714 57.2416 53.4044C56.8119 54.3168 56.8549 55.4406 57.568 56.1537L75.4559 74.0416C75.8465 74.4322 75.8465 75.0653 75.4559 75.4558C75.0654 75.8464 74.4323 75.8464 74.0417 75.4558L56.1538 57.5679C55.4408 56.8549 54.3169 56.8118 53.4046 57.2415C52.3715 57.728 51.2175 58 50 58C48.7826 58 47.6286 57.728 46.5956 57.2416C45.6833 56.8119 44.5594 56.8549 43.8463 57.568L25.9585 75.4558C25.568 75.8464 24.9348 75.8464 24.5443 75.4558C24.1537 75.0653 24.1537 74.4322 24.5443 74.0416L42.4321 56.1538C43.1452 55.4407 43.1882 54.3168 42.7585 53.4045C42.272 52.3715 42 51.2175 42 50C42 48.7825 42.272 47.6285 42.7585 46.5955C43.1882 45.6832 43.1452 44.5593 42.4321 43.8462L24.5443 25.9584ZM46 50C46 47.7909 47.7909 46 50 46C52.2091 46 54 47.7909 54 50C54 52.2091 52.2091 54 50 54C47.7909 54 46 52.2091 46 50Z" fill="white"/></svg>